<svg xmlns="http://www.w3.org/2000/svg" width="1000" height="1180" viewBox="0 0 1000 1180" role="img" aria-labelledby="title desc">
<title id="title">Resolver efectos y la bolsa</title><desc id="desc">CR 6.1.4–6.1.5, 6.7 y 7.7</desc>
<rect width="100%" height="100%" fill="#f7f9fc"/>
<style>text{font-family:Arial,sans-serif;fill:#17334b}.title{font-size:32px;font-weight:bold}.body{font-size:22px}.small{font-size:18px}.step{font-size:23px;font-weight:bold}</style>
<text x="40" y="58" font-family="Arial" font-size="32" font-weight="bold">Resolver efectos y la bolsa</text>
<text x="40" y="95" font-family="Arial" font-size="18">CR 2.3 · Aplicación desde el 16 de octubre de 2026</text>
<text x="40" y="124" font-family="Arial" font-size="18">CR 6.1.4–6.1.5, 6.7 y 7.7</text>
<rect x="40" y="155" width="920" height="120" rx="14" fill="white" stroke="#b6ced9" stroke-width="2"/>
<text x="62" y="187" font-family="Arial" font-size="23" font-weight="bold">1 · Comienza la resolución</text>
<text x="62" y="220" font-family="Arial" font-size="22">No se intercalan acciones de turno ni respuestas.</text>
<text x="62" y="247" font-family="Arial" font-size="22">Identifica la instrucción y las condiciones que deben cumplirse.</text>
<path d="M500 277 v19 m-6 -7 l6 7 6 -7" fill="none" stroke="#3a7b91" stroke-width="2"/>
<rect x="40" y="300" width="920" height="120" rx="14" fill="white" stroke="#b6ced9" stroke-width="2"/>
<text x="62" y="332" font-family="Arial" font-size="23" font-weight="bold">2 · Elecciones y daño según CR 6.7.2</text>
<text x="62" y="365" font-family="Arial" font-size="22">Determina «for each» y condiciones secundarias; elige y calcula el daño.</text>
<text x="62" y="392" font-family="Arial" font-size="22">Sigue las instrucciones en orden y haz las demás elecciones cuando correspondan.</text>
<path d="M500 422 v19 m-6 -7 l6 7 6 -7" fill="none" stroke="#3a7b91" stroke-width="2"/>
<rect x="40" y="445" width="920" height="120" rx="14" fill="white" stroke="#b6ced9" stroke-width="2"/>
<text x="62" y="477" font-family="Arial" font-size="23" font-weight="bold">3 · Opciones y secuencias</text>
<text x="62" y="510" font-family="Arial" font-size="22">Cada «may» puede introducir una opción distinta: lee qué parte afecta.</text>
<text x="62" y="537" font-family="Arial" font-size="22">«A to B» o «if you do» mantienen la dependencia indicada; «then» ordena.</text>
<path d="M500 567 v19 m-6 -7 l6 7 6 -7" fill="none" stroke="#3a7b91" stroke-width="2"/>
<rect x="40" y="590" width="920" height="120" rx="14" fill="white" stroke="#b6ced9" stroke-width="2"/>
<text x="62" y="622" font-family="Arial" font-size="23" font-weight="bold">4 · Si actúan varios jugadores</text>
<text x="62" y="655" font-family="Arial" font-size="22">Todos hacen una parte en orden de turno, luego la siguiente parte.</text>
<text x="62" y="682" font-family="Arial" font-size="22">No se resuelve todo el efecto por jugador ni se intercala la bolsa.</text>
<path d="M500 712 v19 m-6 -7 l6 7 6 -7" fill="none" stroke="#3a7b91" stroke-width="2"/>
<rect x="40" y="735" width="920" height="120" rx="14" fill="white" stroke="#b6ced9" stroke-width="2"/>
<text x="62" y="767" font-family="Arial" font-size="23" font-weight="bold">5 · Disparos durante el efecto</text>
<text x="62" y="800" font-family="Arial" font-size="22">Se añaden a la bolsa cuando ocurre su evento, durante la resolución.</text>
<text x="62" y="827" font-family="Arial" font-size="22">Esperan: no se resuelven hasta terminar el efecto y hacer el chequeo de estado.</text>
<path d="M500 857 v19 m-6 -7 l6 7 6 -7" fill="none" stroke="#3a7b91" stroke-width="2"/>
<rect x="40" y="880" width="920" height="120" rx="14" fill="white" stroke="#b6ced9" stroke-width="2"/>
<text x="62" y="912" font-family="Arial" font-size="23" font-weight="bold">6 · Termina el efecto, chequeo de estado y bolsa</text>
<text x="62" y="945" font-family="Arial" font-size="22">Se realizan los chequeos aplicables y se resuelven los disparos pendientes.</text>
<text x="62" y="972" font-family="Arial" font-size="22">Cada jugador continúa con sus disparos antes de pasar la bolsa: CR 7.7.</text>
<text x="40" y="1030" font-family="Arial" font-size="18">Reemplazos y efectos continuos se aplican en sus momentos reglamentarios.</text>
<text x="40" y="1060" font-family="Arial" font-size="18">Las habilidades flotantes y retardadas esperan fuera de la bolsa hasta dispararse.</text>
</svg>
